<?xml version="1.0" ?>
<!-- Uploaded to: SVG Repo, www.svgrepo.com, Generator: SVG Repo Mixer Tools -->
<svg width="800px" height="800px" viewBox="0 0 300 300" id="catapprove" version="1.1" xml:space="preserve" xmlns="http://www.w3.org/2000/svg" xmlns:xlink="http://www.w3.org/1999/xlink">
<g>
<circle cx="150" cy="158" r="120" style="fill-rule:evenodd;clip-rule:evenodd;fill:#FFDD95;stroke:#000000;stroke-width:8;stroke-linecap:round;stroke-linejoin:round;stroke-miterlimit:10;"/>
<path d="   M163.128,119.763C159.016,118.621,154.596,118,150,118c-5.108,0-9.992,0.766-14.484,2.162c-2.328-4.88-8.688-17.237-15.632-22.162   c0,0-7.28,19.104-5.644,37.648c-2.712,4.316-4.24,9.192-4.24,14.352c0,14.728,12.436,27.132,29.368,30.857   C122.436,190.17,110,221.18,110,258c0,4.554,0.192,9.02,0.556,13.367C122.908,275.664,136.184,278,150,278   s27.092-2.336,39.444-6.633C189.808,267.02,190,262.554,190,258c0-36.82-12.436-67.83-29.368-77.143   C177.564,177.132,190,164.728,190,150c0-5.994-2.06-11.603-5.644-16.398C185.32,115.725,178.568,98,178.568,98   C171.804,102.796,165.596,114.638,163.128,119.763z" style="fill-rule:evenodd;clip-rule:evenodd;fill:#997843;stroke:#000000;stroke-width:8;stroke-linecap:round;stroke-linejoin:round;stroke-miterlimit:10;"/>
<circle cx="238" cy="70" r="40" style="fill-rule:evenodd;clip-rule:evenodd;fill:#85D839;stroke:#000000;stroke-width:8;stroke-linecap:round;stroke-linejoin:round;stroke-miterlimit:10;"/>
<polyline points="   254,50 235.596,90 218,75.725  " style="fill:none;stroke:#000000;stroke-width:8;stroke-linecap:round;stroke-linejoin:round;stroke-miterlimit:10;"/>
</g>
<g/>
<g/>
<g/>
<g/>
<g/>
<g/>
<g/>
<g/>
<g/>
<g/>
<g/>
<g/>
<g/>
<g/>
<g/>
</svg>