<?xml version="1.0" ?>
<!-- Uploaded to: SVG Repo, www.svgrepo.com, Generator: SVG Repo Mixer Tools -->
<svg width="800px" height="800px" viewBox="0 0 300 300" id="lost" version="1.1" xml:space="preserve" xmlns="http://www.w3.org/2000/svg" xmlns:xlink="http://www.w3.org/1999/xlink">
<g>
<path d="   M38,49.985C38,43.366,43.392,38,49.984,38h208.032C264.636,38,270,43.393,270,49.985v208.031c0,6.619-5.392,11.985-11.984,11.985   H49.984C43.364,270,38,264.607,38,258.015V49.985z" style="fill-rule:evenodd;clip-rule:evenodd;fill:#ED5481;stroke:#000000;stroke-width:8;stroke-linecap:round;stroke-linejoin:round;stroke-miterlimit:10;"/>
<path d="   M110,147.333c0,12.518,9.848,22.667,22,22.667c8.876,0,12-6.117,20-6.117S163.124,170,172,170c12.152,0,22-10.148,22-22.667   c0-10.383-6.776-19.136-16.02-21.82c0.012-0.281,0.02-0.563,0.02-0.847c0-12.518-9.884-22.667-26-22.667s-26,10.148-26,22.667   c0,0.284,0.008,0.566,0.02,0.847C116.776,128.198,110,136.95,110,147.333z" style="fill-rule:evenodd;clip-rule:evenodd;fill:#85D839;stroke:#000000;stroke-width:8;stroke-linecap:round;stroke-linejoin:round;stroke-miterlimit:10;"/>
<path d="   M139.366,87.766c13.191-6.007,11.695-12.871,8.244-21.472c-3.45-8.601-13.269-14.657-21.275-11.4   c-4.974,2.025-6.388,5.393-7.194,11.063c-0.808,5.67-1.821,8.877-0.512,12.132C122.076,86.691,126.175,93.772,139.366,87.766z" style="fill-rule:evenodd;clip-rule:evenodd;fill:#85D839;stroke:#000000;stroke-width:8;stroke-linecap:round;stroke-linejoin:round;stroke-miterlimit:10;"/>
<path d="   M172.634,87.766c-13.191-6.007-11.695-12.871-8.244-21.472c3.45-8.601,13.269-14.657,21.275-11.4   c4.974,2.025,6.388,5.393,7.194,11.063c0.808,5.67,1.821,8.877,0.512,12.132C189.924,86.691,185.825,93.772,172.634,87.766z" style="fill-rule:evenodd;clip-rule:evenodd;fill:#85D839;stroke:#000000;stroke-width:8;stroke-linecap:round;stroke-linejoin:round;stroke-miterlimit:10;"/>
<ellipse cx="98" cy="98" rx="12.549" ry="18.825" style="fill-rule:evenodd;clip-rule:evenodd;fill:#85D839;stroke:#000000;stroke-width:8;stroke-linecap:round;stroke-linejoin:round;stroke-miterlimit:10;" transform="matrix(0.7071 -0.7071 0.7071 0.7071 -40.5929 97.9956)"/>
<path d="   M192.284,115.251c4.549,4.601,14.372,3.293,21.947-2.921c7.576-6.213,10.033-14.98,5.484-19.581   c-4.549-4.601-14.372-3.293-21.947,2.921C190.192,101.883,187.736,110.65,192.284,115.251z" style="fill-rule:evenodd;clip-rule:evenodd;fill:#85D839;stroke:#000000;stroke-width:8;stroke-linecap:round;stroke-linejoin:round;stroke-miterlimit:10;"/>
<g>
<path d="M109.32,201.305c0-0.82,0.043-1.619,0.133-2.4c0.086-0.781,0.289-1.473,0.602-2.078c0.309-0.605,0.758-1.094,1.344-1.465    c0.586-0.369,1.375-0.557,2.371-0.557c1.016,0,1.816,0.188,2.402,0.557c0.586,0.371,1.027,0.859,1.332,1.465    c0.301,0.605,0.496,1.297,0.586,2.078c0.086,0.781,0.129,1.58,0.129,2.4v27.928c0,0.818-0.043,1.623-0.129,2.414    c-0.09,0.791-0.285,1.494-0.586,2.107c-0.305,0.615-0.746,1.109-1.332,1.479c-0.586,0.371-1.387,0.557-2.402,0.557    c-0.996,0-1.785-0.186-2.371-0.557c-0.586-0.369-1.035-0.863-1.344-1.479c-0.312-0.613-0.516-1.316-0.602-2.107    c-0.09-0.791-0.133-1.596-0.133-2.414V201.305z"/>
<path d="M124.664,217.521c0-1.795,0.242-3.316,0.73-4.566c0.488-1.248,1.117-2.293,1.887-3.133    c0.773-0.838,1.629-1.492,2.578-1.961c0.945-0.469,1.879-0.818,2.793-1.053c0.918-0.234,1.773-0.381,2.562-0.439    c0.793-0.059,1.41-0.088,1.859-0.088s1.062,0.029,1.844,0.088s1.617,0.205,2.504,0.439s1.785,0.584,2.691,1.053    c0.91,0.469,1.73,1.123,2.461,1.961c0.73,0.84,1.332,1.885,1.801,3.133c0.469,1.25,0.703,2.771,0.703,4.566v7.26    c0,1.797-0.234,3.318-0.703,4.568c-0.469,1.248-1.07,2.293-1.801,3.131c-0.73,0.84-1.551,1.494-2.461,1.963    c-0.906,0.467-1.805,0.818-2.691,1.053s-1.723,0.381-2.504,0.439s-1.395,0.088-1.844,0.088s-1.066-0.029-1.859-0.088    c-0.789-0.059-1.645-0.205-2.562-0.439c-0.914-0.234-1.848-0.586-2.793-1.053c-0.949-0.469-1.805-1.123-2.578-1.963    c-0.77-0.838-1.398-1.883-1.887-3.131c-0.488-1.25-0.73-2.771-0.73-4.568V217.521z M133.68,226.832    c0.02,0.566,0.156,1.062,0.41,1.492c0.215,0.391,0.551,0.736,1.008,1.039c0.461,0.303,1.117,0.453,1.977,0.453    c0.82,0,1.449-0.15,1.887-0.453c0.441-0.303,0.766-0.648,0.98-1.039c0.234-0.43,0.371-0.926,0.41-1.492v-10.598    c-0.039-0.586-0.176-1.123-0.41-1.609c-0.215-0.391-0.539-0.758-0.98-1.1c-0.438-0.34-1.066-0.512-1.887-0.512    c-0.859,0-1.516,0.172-1.977,0.512c-0.457,0.342-0.793,0.709-1.008,1.1c-0.254,0.486-0.391,1.023-0.41,1.609V226.832z"/>
<path d="M162.66,214.186c0,0.391,0.125,0.75,0.379,1.082s0.602,0.65,1.039,0.951c0.441,0.303,0.945,0.602,1.523,0.895    c0.574,0.291,1.176,0.584,1.801,0.877c0.957,0.469,1.93,0.971,2.926,1.508s1.902,1.166,2.723,1.889s1.488,1.557,2.004,2.502    c0.52,0.947,0.777,2.064,0.777,3.352c0,1.172-0.172,2.207-0.512,3.104c-0.344,0.898-0.797,1.674-1.363,2.328    s-1.223,1.195-1.973,1.625c-0.754,0.43-1.543,0.77-2.371,1.023c-0.832,0.254-1.676,0.436-2.535,0.541    c-0.859,0.107-1.668,0.162-2.43,0.162c-1.5,0-2.809-0.127-3.922-0.381s-2.07-0.59-2.867-1.01c-0.801-0.42-1.461-0.898-1.977-1.434    c-0.52-0.537-0.922-1.1-1.215-1.684c-0.293-0.586-0.5-1.166-0.617-1.742s-0.176-1.107-0.176-1.596c0-1.17,0.328-2.029,0.984-2.576    c0.652-0.547,1.652-0.82,3-0.82c0.973,0,1.773,0.264,2.398,0.791s0.957,1.377,0.996,2.547c0.02,0.391,0.133,0.703,0.336,0.938    c0.207,0.234,0.469,0.424,0.793,0.57c0.32,0.146,0.676,0.244,1.066,0.293s0.77,0.072,1.141,0.072c0.762,0,1.383-0.199,1.859-0.6    c0.48-0.4,0.719-0.922,0.719-1.566c0-0.545-0.16-1.059-0.484-1.537c-0.32-0.477-0.746-0.922-1.273-1.332    c-0.527-0.408-1.125-0.805-1.801-1.186c-0.672-0.381-1.359-0.766-2.062-1.156c-0.879-0.469-1.762-0.965-2.648-1.492    c-0.891-0.527-1.695-1.113-2.418-1.756c-0.719-0.645-1.305-1.371-1.754-2.182s-0.676-1.732-0.676-2.766    c0-1.523,0.25-2.797,0.75-3.82c0.496-1.025,1.223-1.855,2.18-2.488c0.957-0.635,2.121-1.088,3.496-1.361    c1.379-0.273,2.945-0.43,4.699-0.469h0.469c1.582,0,2.922,0.137,4.027,0.41c1.102,0.273,2.02,0.629,2.75,1.068    s1.309,0.932,1.727,1.479c0.422,0.547,0.734,1.098,0.938,1.654c0.203,0.555,0.332,1.088,0.379,1.594    c0.051,0.508,0.074,0.938,0.074,1.289c0,0.586-0.121,1.068-0.367,1.449c-0.242,0.381-0.566,0.684-0.965,0.906    c-0.398,0.225-0.852,0.381-1.359,0.469s-1.035,0.143-1.582,0.162c-0.469,0-0.895-0.078-1.273-0.234s-0.707-0.352-0.98-0.586    s-0.484-0.498-0.629-0.791c-0.148-0.293-0.219-0.574-0.219-0.848c-0.039-0.742-0.34-1.309-0.895-1.699    c-0.555-0.389-1.234-0.584-2.035-0.584c-0.332,0-0.648,0.033-0.949,0.102c-0.305,0.068-0.578,0.186-0.82,0.352    c-0.246,0.166-0.441,0.385-0.586,0.658C162.73,213.404,162.66,213.756,162.66,214.186z"/>
<path d="M185.551,206.516v-5.152c0-0.82,0.047-1.619,0.133-2.4c0.09-0.781,0.289-1.479,0.602-2.094s0.762-1.111,1.348-1.492    c0.582-0.381,1.375-0.572,2.371-0.572c0.973,0,1.754,0.191,2.34,0.572s1.031,0.877,1.332,1.492s0.496,1.312,0.586,2.094    c0.086,0.781,0.133,1.58,0.133,2.4v5.152h2.398c0.508,0,1.016,0.023,1.523,0.072s0.961,0.191,1.359,0.426    c0.402,0.232,0.723,0.584,0.969,1.053c0.242,0.469,0.363,1.123,0.363,1.961c0,0.801-0.121,1.436-0.363,1.904    c-0.246,0.467-0.566,0.818-0.969,1.053c-0.398,0.234-0.852,0.387-1.359,0.453c-0.508,0.07-1.016,0.104-1.523,0.104h-2.398v10.246    c0,0.391,0.012,0.805,0.043,1.244c0.027,0.439,0.133,0.844,0.309,1.215s0.438,0.678,0.789,0.922s0.848,0.365,1.492,0.365    c0.703,0,1.305,0.055,1.801,0.162s0.906,0.297,1.23,0.57c0.32,0.273,0.559,0.654,0.715,1.143c0.156,0.486,0.234,1.111,0.234,1.873    c0,0.781-0.18,1.453-0.539,2.02c-0.363,0.566-0.844,1.035-1.449,1.404c-0.605,0.371-1.309,0.645-2.109,0.82    s-1.637,0.264-2.516,0.264c-1.387,0-2.574-0.146-3.559-0.439s-1.805-0.707-2.457-1.244c-0.656-0.537-1.172-1.18-1.555-1.932    c-0.379-0.752-0.66-1.596-0.848-2.533c-0.184-0.936-0.301-1.945-0.352-3.029c-0.047-1.082-0.074-2.219-0.074-3.41v-9.66h-1.637    c-0.508,0-1.012-0.033-1.508-0.104c-0.5-0.066-0.941-0.219-1.332-0.453s-0.707-0.586-0.953-1.053    c-0.242-0.469-0.363-1.104-0.363-1.904c0-0.838,0.121-1.492,0.363-1.961c0.246-0.469,0.562-0.82,0.953-1.053    c0.391-0.234,0.832-0.377,1.332-0.426c0.496-0.049,1-0.072,1.508-0.072H185.551z"/>
</g>
</g>
<g/>
<g/>
<g/>
<g/>
<g/>
<g/>
<g/>
<g/>
<g/>
<g/>
<g/>
<g/>
<g/>
<g/>
<g/>
</svg>