<svg xmlns="http://www.w3.org/2000/svg" width="32" height="32" viewBox="0 0 8.467 8.467" id="hearts"><g fill="#fa615b" transform="translate(111.034 -156.988) scale(.26458)"><path d="m -402.25781,597.83095 a 5.5649772,5.5649772 0 0 0 -4.01563,1.63086 5.5649772,5.5649772 0 0 0 -1.09179,6.31055 c 0.0911,-0.007 0.18129,-0.0176 0.27343,-0.0176 1.45729,0 2.90954,0.55405 4.01563,1.66015 1.28466,1.28466 1.81677,3.04138 1.60937,4.72266 l 3.0625,3.0625 7.8711,-7.86914 a 5.5649772,5.5649772 0 0 0 0,-7.86914 5.5649772,5.5649772 0 0 0 -7.8711,0 5.5649772,5.5649772 0 0 0 -3.85351,-1.63086 z"></path><path d="M-403.78004 608.12034a4.6860917 4.6860917 0 0 1 0 6.62715l-6.62712 6.62714-6.62712-6.62714a4.6860917 4.6860917 0 0 1 0-6.62715 4.6860917 4.6860917 0 0 1 6.62712 0 4.6860917 4.6860917 0 0 1 6.62712 0zM-409.58572 597.73249a1.464464 1.464464 0 0 1 0 2.07107l-2.07107 2.07111-2.07103-2.07103a1.464464 1.464464 0 0 1-.00004-2.07111 1.464464 1.464464 0 0 1 2.07111 0 1.464464 1.464464 0 0 1 2.07103-.00004zM-414.45704 601.97516a1.0251244 1.0251244 0 0 1 0 1.44976l-1.44975 1.44975-1.44971-1.44975a1.0251244 1.0251244 0 0 1-.00004-1.44979 1.0251244 1.0251244 0 0 1 1.44979 0 1.0251244 1.0251244 0 0 1 1.44971.00003z"></path></g></svg>