<svg xmlns="http://www.w3.org/2000/svg" enable-background="new 0 0 32 32" viewBox="0 0 32 32" id="pet" fill="#2ac279"><g><path d="M16,26.176c1.881,0.002,3.667,0.853,5.526,0.169c1.477-0.544,2.637-1.865,2.897-3.646c0.233-1.596-0.444-3.076-1.589-4.346
		c-3.6-3.992-10.068-3.992-13.668,0c-1.145,1.27-1.821,2.749-1.589,4.346c0.259,1.781,1.42,3.103,2.897,3.646
		C12.333,27.029,14.119,26.179,16,26.176z"></path><ellipse cx="11.572" cy="8.877" rx="2.923" ry="3.507" transform="rotate(-11.008 11.571 8.878)"></ellipse><ellipse cx="4.562" cy="14.001" rx="2.541" ry="3.05" transform="rotate(-11.008 4.561 14.001)"></ellipse><ellipse cx="20.428" cy="8.877" rx="3.507" ry="2.923" transform="rotate(-78.995 20.428 8.877)"></ellipse><ellipse cx="27.438" cy="14.001" rx="3.05" ry="2.541" transform="rotate(-78.995 27.438 14.001)"></ellipse></g></svg>