<?xml version="1.0" encoding="utf-8"?><!-- Uploaded to: SVG Repo, www.svgrepo.com, Generator: SVG Repo Mixer Tools -->
<svg fill="#000000" width="800px" height="800px" viewBox="0 0 24 24" id="reward" data-name="Flat Line" xmlns="http://www.w3.org/2000/svg" class="icon flat-line"><path id="secondary" d="M18.39,7.92c-.23-.7-.07-1.61-.5-2.2S16.54,5,16,4.56s-1-1.26-1.7-1.49-1.49.21-2.25.21-1.57-.43-2.25-.21S8.64,4.14,8.05,4.56s-1.51.57-1.94,1.16-.27,1.5-.5,2.2S4.72,9.24,4.72,10s.67,1.4.89,2.08.07,1.61.5,2.2,1.35.73,1.94,1.16,1,1.26,1.7,1.49,1.49-.21,2.25-.21,1.57.43,2.25.21,1.11-1.07,1.7-1.49,1.51-.57,1.94-1.16.27-1.5.5-2.2.89-1.32.89-2.08S18.61,8.6,18.39,7.92ZM12,13a3,3,0,1,1,3-3A3,3,0,0,1,12,13Z" style="fill: rgb(44, 169, 188); stroke-width: 2;"></path><polyline id="primary" points="14.05 17.1 16 21 17.98 18.97 21 19 18.19 13.42 18.19 13.41" style="fill: none; stroke: rgb(0, 0, 0); stroke-linecap: round; stroke-linejoin: round; stroke-width: 2;"></polyline><polyline id="primary-2" data-name="primary" points="9.95 17.1 8 21 6.02 18.97 3 19 5.81 13.42 5.81 13.41" style="fill: none; stroke: rgb(0, 0, 0); stroke-linecap: round; stroke-linejoin: round; stroke-width: 2;"></polyline><path id="primary-3" data-name="primary" d="M19.28,10c0,.76-.67,1.4-.89,2.08s-.07,1.61-.5,2.2S16.54,15,16,15.44s-1,1.26-1.7,1.49-1.49-.21-2.25-.21-1.57.43-2.25.21-1.11-1.07-1.7-1.49-1.51-.57-1.94-1.16-.27-1.5-.5-2.2S4.72,10.76,4.72,10s.67-1.4.89-2.08.07-1.61.5-2.2S7.46,5,8.05,4.56,9,3.3,9.75,3.07s1.49.21,2.25.21,1.57-.43,2.25-.21S15.36,4.14,16,4.56s1.51.57,1.94,1.16.27,1.5.5,2.2S19.28,9.24,19.28,10ZM12,7a3,3,0,1,0,3,3A3,3,0,0,0,12,7Z" style="fill: none; stroke: rgb(0, 0, 0); stroke-linecap: round; stroke-linejoin: round; stroke-width: 2;"></path></svg>